<?xml version="1.0" encoding="UTF-8" ?>
<!DOCTYPE svg PUBLIC "-//W3C//DTD SVG 1.1//EN" "http://www.w3.org/Graphics/SVG/1.1/DTD/svg11.dtd">
<svg width="174pt" height="170pt" viewBox="0 0 174 170" version="1.1" xmlns="http://www.w3.org/2000/svg">
<path fill="#ffffff" d=" M 0.00 0.00 L 82.37 0.00 C 78.96 1.42 75.66 4.15 75.38 8.09 C 75.16 15.39 75.32 22.71 75.30 30.01 C 75.13 34.08 77.97 38.10 81.96 39.08 C 86.57 40.25 92.49 39.66 95.24 35.29 C 96.76 33.29 96.69 30.71 96.73 28.33 C 95.63 28.27 94.53 28.22 93.43 28.16 C 93.65 31.10 92.85 34.52 89.83 35.74 C 85.93 36.82 80.14 36.66 78.83 31.92 C 78.24 25.97 78.79 19.96 78.57 13.98 C 78.73 11.25 78.01 8.15 79.71 5.76 C 82.53 2.20 88.65 2.07 91.83 5.20 C 93.59 6.85 93.32 9.41 93.57 11.60 C 94.68 11.30 95.79 11.01 96.91 10.72 C 97.22 5.92 94.21 1.62 89.73 0.00 L 111.34 0.00 C 107.65 1.49 104.25 4.71 104.32 8.95 C 104.24 15.99 104.28 23.03 104.30 30.06 C 104.14 34.14 107.00 38.11 110.99 39.08 C 115.60 40.26 121.52 39.64 124.26 35.26 C 125.76 33.29 125.65 30.75 125.77 28.42 C 124.66 28.32 123.54 28.23 122.42 28.13 C 122.79 31.34 121.52 35.21 118.02 35.98 C 114.97 36.32 111.08 36.80 108.97 34.03 C 107.09 31.79 107.68 28.69 107.57 26.00 C 107.75 20.00 107.34 13.98 107.74 7.99 C 108.98 2.41 117.17 1.49 120.82 5.19 C 122.59 6.84 122.33 9.40 122.56 11.59 C 123.68 11.29 124.80 10.99 125.93 10.70 C 126.19 5.91 123.20 1.61 118.72 0.00 L 174.00 0.00 L 174.00 170.00 L 0.00 170.00 L 0.00 0.00 Z" />
<path fill="#0e7a0d" d=" M 82.37 0.00 L 89.73 0.00 C 94.21 1.62 97.22 5.92 96.91 10.72 C 95.79 11.01 94.68 11.30 93.57 11.60 C 93.32 9.41 93.59 6.85 91.83 5.20 C 88.65 2.07 82.53 2.20 79.71 5.76 C 78.01 8.15 78.73 11.25 78.57 13.98 C 78.79 19.96 78.24 25.97 78.83 31.92 C 80.14 36.66 85.93 36.82 89.83 35.74 C 92.85 34.52 93.65 31.10 93.43 28.16 C 94.53 28.22 95.63 28.27 96.73 28.33 C 96.69 30.71 96.76 33.29 95.24 35.29 C 92.49 39.66 86.57 40.25 81.96 39.08 C 77.97 38.10 75.13 34.08 75.30 30.01 C 75.32 22.71 75.16 15.39 75.38 8.09 C 75.66 4.15 78.96 1.42 82.37 0.00 Z" />
<path fill="#0e7a0d" d=" M 111.34 0.00 L 118.72 0.00 C 123.20 1.61 126.19 5.91 125.93 10.70 C 124.80 10.99 123.68 11.29 122.56 11.59 C 122.33 9.40 122.59 6.84 120.82 5.19 C 117.17 1.49 108.98 2.41 107.74 7.99 C 107.34 13.98 107.75 20.00 107.57 26.00 C 107.68 28.69 107.09 31.79 108.97 34.03 C 111.08 36.80 114.97 36.32 118.02 35.98 C 121.52 35.21 122.79 31.34 122.42 28.13 C 123.54 28.23 124.66 28.32 125.77 28.42 C 125.65 30.75 125.76 33.29 124.26 35.26 C 121.52 39.64 115.60 40.26 110.99 39.08 C 107.00 38.11 104.14 34.14 104.30 30.06 C 104.28 23.03 104.24 15.99 104.32 8.95 C 104.25 4.71 107.65 1.49 111.34 0.00 Z" />
<path fill="#0e7a0d" d=" M 48.50 0.91 C 55.61 0.74 62.71 0.73 69.82 0.97 C 69.83 1.69 69.87 3.12 69.88 3.83 C 63.85 3.89 57.81 3.78 51.78 3.90 C 51.64 8.62 51.73 13.35 51.73 18.07 C 56.75 18.28 61.78 18.01 66.80 18.26 C 66.56 19.35 67.03 21.78 65.08 21.28 C 60.72 21.78 55.82 20.47 51.77 21.85 C 51.62 27.53 51.71 33.21 51.77 38.89 C 50.95 38.93 49.30 39.02 48.47 39.07 C 48.38 26.35 48.33 13.63 48.50 0.91 Z" />
<path fill="#e0b75a" d=" M 29.99 47.98 C 47.99 48.05 65.99 47.92 83.99 48.04 C 84.16 55.36 83.67 62.70 84.31 70.00 C 85.07 72.87 83.57 75.47 82.66 78.09 C 82.10 79.81 83.55 81.35 83.98 82.94 C 84.14 84.40 84.22 85.87 84.32 87.34 C 82.07 87.41 79.82 87.60 77.57 87.70 L 77.38 87.69 C 74.63 87.11 71.83 86.80 69.02 86.95 C 56.53 87.30 44.04 86.66 31.55 87.21 C 28.90 86.81 30.33 83.11 30.13 81.26 C 32.77 81.40 35.53 80.95 38.10 81.45 C 38.57 81.75 39.51 82.36 39.98 82.66 C 44.29 83.00 48.63 82.63 52.95 82.80 C 54.25 77.47 55.06 72.04 56.41 66.72 C 57.71 71.95 58.64 77.25 59.52 82.55 C 64.29 82.93 69.09 82.73 73.87 82.78 C 74.39 79.70 76.92 75.69 73.74 73.31 C 67.01 66.60 61.97 58.53 56.32 50.96 C 50.81 58.83 45.47 66.89 38.67 73.73 C 36.88 75.09 37.71 77.39 37.78 79.27 C 35.04 79.45 32.07 79.34 30.01 77.30 C 30.12 70.98 29.75 64.64 30.23 58.33 C 31.83 57.95 33.43 57.57 35.05 57.29 C 36.72 57.03 38.37 56.70 40.03 56.36 C 37.17 56.17 34.30 56.30 31.47 56.79 C 28.85 55.10 30.37 50.76 29.99 47.98 Z" />
<path fill="#988046" d=" M 83.99 48.04 C 100.97 47.84 117.94 48.42 134.92 48.18 C 135.12 55.76 134.92 63.35 135.02 70.93 C 134.99 73.10 135.26 75.39 134.30 77.42 C 134.96 79.90 135.20 82.48 135.01 85.05 C 135.11 86.13 134.48 87.68 133.25 87.71 C 116.95 87.09 100.63 87.67 84.32 87.34 C 84.22 85.87 84.14 84.40 83.98 82.94 C 85.61 79.68 86.81 76.22 88.52 73.00 C 89.06 74.59 89.58 76.18 90.07 77.79 C 90.59 77.61 91.63 77.25 92.15 77.07 C 93.04 78.79 93.69 80.63 94.24 82.49 C 97.05 79.79 96.08 75.00 93.29 72.65 C 91.19 70.93 90.52 68.43 90.60 65.80 C 88.61 66.42 87.43 68.04 86.65 69.88 C 86.06 69.91 84.89 69.97 84.31 70.00 C 83.67 62.70 84.16 55.36 83.99 48.04 Z" />
<path fill="#3a312a" d=" M 56.32 50.96 C 61.97 58.53 67.01 66.60 73.74 73.31 C 76.92 75.69 74.39 79.70 73.87 82.78 C 69.09 82.73 64.29 82.93 59.52 82.55 C 58.64 77.25 57.71 71.95 56.41 66.72 C 55.06 72.04 54.25 77.47 52.95 82.80 C 48.63 82.63 44.29 83.00 39.98 82.66 C 39.51 82.36 38.57 81.75 38.10 81.45 C 41.96 80.79 45.90 80.82 49.80 80.48 C 45.81 80.26 41.82 79.91 37.83 79.78 L 37.78 79.27 C 37.71 77.39 36.88 75.09 38.67 73.73 C 45.47 66.89 50.81 58.83 56.32 50.96 Z" />
<path fill="#988046" d=" M 31.47 56.79 C 34.30 56.30 37.17 56.17 40.03 56.36 C 38.37 56.70 36.72 57.03 35.05 57.29 C 34.15 57.16 32.36 56.91 31.47 56.79 Z" />
<path fill="#3a312a" d=" M 116.99 59.55 C 118.18 59.68 119.17 60.18 119.98 61.05 C 122.54 63.68 125.23 66.20 127.61 69.00 C 124.35 72.63 121.00 76.31 117.07 79.23 C 116.91 77.88 116.76 76.54 116.63 75.19 C 112.14 74.89 107.63 75.20 103.14 74.81 C 102.50 70.97 102.35 67.03 103.09 63.19 C 107.59 62.78 112.11 63.04 116.61 62.83 C 116.71 62.01 116.90 60.37 116.99 59.55 Z" />
<path fill="#3a312a" d=" M 86.65 69.88 C 87.43 68.04 88.61 66.42 90.60 65.80 C 90.52 68.43 91.19 70.93 93.29 72.65 C 96.08 75.00 97.05 79.79 94.24 82.49 C 93.69 80.63 93.04 78.79 92.15 77.07 C 91.63 77.25 90.59 77.61 90.07 77.79 C 89.58 76.18 89.06 74.59 88.52 73.00 C 86.81 76.22 85.61 79.68 83.98 82.94 C 83.55 81.35 82.10 79.81 82.66 78.09 C 83.57 75.47 85.07 72.87 84.31 70.00 C 84.89 69.97 86.06 69.91 86.65 69.88 Z" />
<path fill="#988046" d=" M 31.55 87.21 C 44.04 86.66 56.53 87.30 69.02 86.95 C 71.83 86.80 74.63 87.11 77.38 87.69 C 73.69 88.83 69.78 88.06 65.98 88.26 C 54.70 88.13 43.38 88.57 32.12 88.06 L 31.55 87.21 Z" />
<path fill="#3a312a" d=" M 84.32 87.34 C 100.63 87.67 116.95 87.09 133.25 87.71 C 130.92 88.52 128.45 88.24 126.04 88.27 C 114.13 88.25 102.22 88.27 90.31 88.26 C 90.34 93.50 90.33 98.73 90.30 103.97 C 91.29 102.91 92.25 101.83 93.20 100.74 C 94.30 102.92 96.03 104.71 98.31 105.66 C 95.92 110.04 92.79 113.99 90.52 118.44 C 89.98 122.56 90.64 126.74 90.14 130.87 C 85.90 130.68 81.63 130.98 77.40 130.46 C 77.72 116.21 77.38 101.95 77.57 87.70 C 79.82 87.60 82.07 87.41 84.32 87.34 Z" />
<path fill="#988046" d=" M 93.20 100.74 C 93.50 98.65 96.56 98.91 97.64 100.32 C 99.41 101.69 99.36 104.00 98.92 105.98 L 98.31 105.66 C 96.03 104.71 94.30 102.92 93.20 100.74 Z" />
<path fill="#966a00" d=" M 0.98 127.09 C 1.83 127.05 3.53 126.97 4.39 126.92 C 4.57 133.23 4.54 139.54 4.38 145.84 C 9.81 146.32 15.29 146.19 20.73 145.94 C 20.64 139.63 20.64 133.31 20.72 127.00 C 21.65 126.99 23.50 126.98 24.42 126.98 C 24.53 141.01 24.53 155.04 24.42 169.07 C 23.50 169.05 21.65 169.02 20.72 169.00 C 20.65 162.72 20.61 156.43 20.76 150.14 C 15.32 149.73 9.83 149.72 4.39 150.14 C 4.53 156.45 4.57 162.76 4.39 169.07 C 3.54 169.03 1.84 168.96 0.99 168.92 C 0.51 159.92 1.04 150.92 0.76 141.93 C 0.86 136.98 0.45 132.02 0.98 127.09 Z" />
<path fill="#966a00" d=" M 61.25 127.14 C 62.43 127.10 63.62 127.06 64.81 127.02 C 64.76 140.99 64.70 154.97 64.84 168.94 C 63.65 168.91 62.45 168.89 61.25 168.86 C 61.39 154.95 61.41 141.04 61.25 127.14 Z" />
<path fill="#966a00" d=" M 101.80 127.03 C 103.17 127.02 104.54 127.02 105.91 127.02 C 105.90 128.64 105.89 130.26 105.88 131.89 C 104.53 131.88 103.18 131.87 101.83 131.86 C 101.82 130.24 101.80 128.63 101.80 127.03 Z" />
<path fill="#966a00" d=" M 142.73 126.98 C 143.58 126.99 145.28 127.02 146.13 127.04 C 146.31 141.01 146.20 154.98 146.19 168.95 C 145.33 168.98 143.60 169.03 142.73 169.05 C 142.63 155.03 142.64 141.00 142.73 126.98 Z" />
<path fill="#966a00" d=" M 169.55 126.93 C 170.44 126.98 172.23 127.06 173.12 127.11 C 173.05 128.68 173.01 130.25 172.99 131.83 C 172.15 131.86 170.46 131.94 169.62 131.98 C 169.55 130.29 169.52 128.61 169.55 126.93 Z" />
<path fill="#966a00" d=" M 35.23 141.26 C 39.90 136.45 49.87 137.38 52.40 144.04 C 53.19 147.34 52.88 150.79 52.69 154.14 C 47.34 154.06 41.99 154.15 36.64 154.07 C 36.65 157.93 35.25 163.24 39.30 165.61 C 42.33 166.51 46.70 166.81 48.63 163.71 C 49.59 162.37 49.22 160.65 49.32 159.12 C 50.49 159.19 51.67 159.26 52.84 159.34 C 53.57 163.69 50.60 169.02 45.82 169.01 C 42.42 169.11 38.38 170.08 35.77 167.26 C 32.00 163.90 33.09 158.44 33.02 153.98 C 33.05 149.73 32.10 144.70 35.23 141.26 Z" />
<path fill="#966a00" d=" M 77.25 140.20 C 83.16 135.66 94.41 139.21 93.70 147.59 C 92.60 147.66 91.49 147.72 90.38 147.79 C 89.96 146.27 89.95 144.47 88.69 143.34 C 86.73 141.28 83.51 141.83 80.97 142.06 C 77.59 142.77 76.39 147.63 79.10 149.81 C 82.54 152.62 87.46 152.40 91.04 155.00 C 95.16 157.92 94.99 165.05 90.73 167.78 C 88.32 169.86 84.97 169.06 82.07 169.18 C 77.85 169.68 74.10 166.01 73.53 161.99 C 73.13 159.84 74.14 158.81 76.57 158.92 C 76.91 161.52 77.49 164.60 80.23 165.72 C 82.65 166.36 85.32 166.34 87.72 165.66 C 90.74 164.55 91.51 160.14 89.11 158.05 C 85.13 154.81 78.98 155.59 75.51 151.51 C 73.07 148.13 73.64 142.60 77.25 140.20 Z" />
<path fill="#966a00" d=" M 102.15 139.09 C 103.34 139.09 104.53 139.09 105.72 139.10 C 105.65 149.01 105.57 158.93 105.76 168.84 C 104.57 168.89 103.38 168.94 102.19 168.99 C 102.23 159.02 102.30 149.05 102.15 139.09 Z" />
<path fill="#966a00" d=" M 114.20 138.88 C 115.65 139.33 116.51 140.56 117.25 141.79 C 121.99 135.86 133.13 138.05 134.05 145.97 C 134.44 153.64 134.13 161.35 134.19 169.04 C 132.90 168.94 131.61 168.84 130.32 168.73 C 130.66 161.51 130.45 154.28 130.48 147.05 C 130.84 139.85 117.50 139.89 117.69 147.03 C 117.64 154.31 117.59 161.59 117.76 168.88 C 116.56 168.91 115.37 168.93 114.18 168.96 C 114.28 158.93 114.23 148.91 114.20 138.88 Z" />
<path fill="#966a00" d=" M 159.13 139.07 C 160.64 139.04 162.14 139.02 163.65 139.01 C 159.89 144.25 155.41 148.93 151.44 154.01 C 155.43 159.06 159.90 163.75 163.63 169.00 C 161.84 168.76 159.30 169.72 158.20 167.76 C 154.55 163.17 150.51 158.79 147.22 153.97 C 150.87 148.80 155.20 144.06 159.13 139.07 Z" />
<path fill="#966a00" d=" M 169.85 139.03 C 170.67 139.02 172.31 139.00 173.13 139.00 C 173.39 148.99 173.59 159.02 173.09 169.00 C 172.27 168.98 170.63 168.95 169.81 168.94 C 169.79 158.97 169.71 148.99 169.85 139.03 Z" />
<path fill="#ffffff" d=" M 39.20 142.44 C 41.56 141.57 44.34 141.62 46.72 142.40 C 49.98 144.17 49.42 148.19 49.28 151.30 C 45.03 151.41 40.78 151.40 36.53 151.30 C 36.48 148.24 35.92 144.11 39.20 142.44 Z" />
</svg>
